<svg width="85" height="85" viewBox="0 0 85 85" fill="none" xmlns="http://www.w3.org/2000/svg">
<path d="M24.7916 3.54175V10.6251H10.625C8.66899 10.6251 7.08331 12.2108 7.08331 14.1667V70.8334C7.08331 72.7895 8.66899 74.3751 10.625 74.3751H38.0892C34.2009 69.5244 31.875 63.3672 31.875 56.6667C31.875 41.0186 44.5602 28.3334 60.2083 28.3334C66.9088 28.3334 73.066 30.6593 77.9166 34.5477V14.1667C77.9166 12.2108 76.331 10.6251 74.375 10.6251H60.2083V3.54175H53.125V10.6251H31.875V3.54175H24.7916ZM81.4583 56.6667C81.4583 68.4028 71.9443 77.9167 60.2083 77.9167C48.4723 77.9167 38.9583 68.4028 38.9583 56.6667C38.9583 44.9307 48.4723 35.4167 60.2083 35.4167C71.9443 35.4167 81.4583 44.9307 81.4583 56.6667ZM56.6666 42.5001V58.1337L64.7873 66.2544L69.796 61.2458L63.75 55.1998V42.5001H56.6666Z" fill="#D2A942"/>
</svg>
