<svg width="85" height="85" viewBox="0 0 85 85" fill="none" xmlns="http://www.w3.org/2000/svg">
<path d="M74.375 28.3334C78.2871 28.3334 81.4583 31.5047 81.4583 35.4167V49.5834C81.4583 53.4955 78.2871 56.6667 74.375 56.6667H70.6141C68.8712 70.6432 56.9486 81.4584 42.5 81.4584V74.3751C54.236 74.3751 63.75 64.8611 63.75 53.1251V31.8751C63.75 20.139 54.236 10.6251 42.5 10.6251C30.7639 10.6251 21.25 20.139 21.25 31.8751V56.6667H10.625C6.71297 56.6667 3.54166 53.4955 3.54166 49.5834V35.4167C3.54166 31.5047 6.71297 28.3334 10.625 28.3334H14.3858C16.1287 14.3569 28.0513 3.54175 42.5 3.54175C56.9486 3.54175 68.8712 14.3569 70.6141 28.3334H74.375ZM27.4813 55.9049L31.236 49.8976C34.5015 51.9429 38.3626 53.1251 42.5 53.1251C46.6374 53.1251 50.4985 51.9429 53.7639 49.8976L57.5188 55.9049C53.1647 58.632 48.0165 60.2084 42.5 60.2084C36.9835 60.2084 31.8354 58.632 27.4813 55.9049Z" fill="#D2A942"/>
</svg>
