<svg width="85" height="85" viewBox="0 0 85 85" fill="none" xmlns="http://www.w3.org/2000/svg">
<path d="M70.8334 70.8334C70.8334 72.7894 69.2478 74.375 67.2917 74.375H17.7084C15.7524 74.375 14.1667 72.7894 14.1667 70.8334V38.9584H3.54175L40.1176 5.70743C41.4684 4.47936 43.5318 4.47936 44.8826 5.70743L81.4584 38.9584H70.8334V70.8334ZM42.5001 60.2084L54.3958 48.3126C57.5075 45.2006 57.5075 40.1551 54.3958 37.043C51.2838 33.9312 46.2383 33.9312 43.1262 37.043L42.5001 37.6692L41.8739 37.043C38.7619 33.9312 33.7165 33.9312 30.6045 37.043C27.4925 40.1551 27.4925 45.2006 30.6045 48.3126L42.5001 60.2084Z" fill="#181861"/>
</svg>
