<svg width="70" height="70" viewBox="0 0 70 70" fill="none" xmlns="http://www.w3.org/2000/svg">
<g clip-path="url(#clip0_26_98)">
<rect x="-1" y="1" width="62" height="69" fill="#181861"/>
<path d="M58.3333 8.75H11.6667C10.0559 8.75 8.75 10.0559 8.75 11.6667V58.3333C8.75 59.9442 10.0559 61.25 11.6667 61.25H58.3333C59.9442 61.25 61.25 59.9442 61.25 58.3333V11.6667C61.25 10.0559 59.9442 8.75 58.3333 8.75ZM14.5833 55.4167V14.5833H55.4167V55.4167H14.5833ZM18.5022 35.0029L35.0015 18.5037L39.1262 22.6285L29.6683 32.0863H51.5005V37.9196H29.6683L39.1262 47.3772L35.0015 51.5019L18.5022 35.0029Z" fill="#D2A942"/>
</g>
<defs>
<clipPath id="clip0_26_98">
<rect width="70" height="70" fill="white"/>
</clipPath>
</defs>
</svg>
