<svg width="75" height="75" viewBox="0 0 75 75" fill="none" xmlns="http://www.w3.org/2000/svg">
<path d="M23.168 51.5523C16.7766 47.0372 12.603 39.5914 12.603 31.1709C12.603 17.3987 23.7676 6.23413 37.5398 6.23413C51.312 6.23413 62.4765 17.3987 62.4765 31.1709C62.4765 39.5914 58.303 47.0372 51.9114 51.5523L58.4043 66.3928C58.7494 67.1814 58.3897 68.1003 57.6011 68.4454C57.4041 68.5314 57.1915 68.576 56.9764 68.576H18.1032C17.2424 68.576 16.5446 67.8781 16.5446 67.0174C16.5446 66.8023 16.5891 66.5898 16.6753 66.3928L23.168 51.5523ZM25.4408 34.1957C26.7926 39.6201 31.6968 43.6392 37.5398 43.6392C43.3828 43.6392 48.2869 39.6201 49.6388 34.1957L43.5891 32.6833C42.9133 35.3955 40.4611 37.4051 37.5398 37.4051C34.6184 37.4051 32.1662 35.3955 31.4904 32.6833L25.4408 34.1957Z" fill="#181861"/>
</svg>
