<svg width="72" height="72" viewBox="0 0 72 72" fill="none" xmlns="http://www.w3.org/2000/svg">
<path d="M58.4004 26.0814L59.1402 24.3843C60.4587 21.3584 62.8335 18.9492 65.7969 17.6312L68.0757 16.6177C69.3081 16.0696 69.3081 14.2764 68.0757 13.7284L65.9244 12.7714C62.8848 11.4195 60.4674 8.92119 59.1714 5.79249L58.4118 3.95859C57.8826 2.68047 56.1174 2.68047 55.5879 3.95859L54.8283 5.79249C53.5326 8.92119 51.1152 11.4195 48.0756 12.7714L45.924 13.7284C44.6919 14.2764 44.6919 16.0696 45.924 16.6177L48.2031 17.6312C51.1665 18.9492 53.5413 21.3584 54.8598 24.3843L55.5993 26.0814C56.1408 27.3238 57.8592 27.3238 58.4004 26.0814ZM40.1607 19.0164C40.983 20.3176 42.1071 21.2792 43.5333 21.901L45.2292 22.6404C46.9398 23.386 48.162 24.5843 48.8961 26.2352L49.9095 28.5141C52.092 33.4248 58.5852 34.1979 62.127 30.8361L62.4 31.2C63.2601 32.3466 63.1887 33.9414 62.2299 35.007L35.2299 65.007C34.6611 65.6391 33.8505 66 33 66C32.1495 66 31.3392 65.6391 30.7701 65.007L3.77013 35.007C2.81128 33.9414 2.74001 32.3466 3.6 31.2L12.6 19.2C13.1666 18.4446 14.0558 18 15 18H39.6189C39.7713 18.3471 39.9519 18.6859 40.1607 19.0164Z" fill="#181861"/>
</svg>
