<svg width="70" height="70" viewBox="0 0 70 70" fill="none" xmlns="http://www.w3.org/2000/svg">
<g clip-path="url(#clip0_26_95)">
<rect x="9" width="62" height="69" fill="#181861"/>
<path d="M58.3333 8.75H11.6667C10.0559 8.75 8.75 10.0559 8.75 11.6667V58.3333C8.75 59.9442 10.0559 61.25 11.6667 61.25H58.3333C59.9442 61.25 61.25 59.9442 61.25 58.3333V11.6667C61.25 10.0559 59.9442 8.75 58.3333 8.75ZM14.5833 55.4167V14.5833H55.4167V55.4167H14.5833ZM51.4993 35L35 51.499L30.8753 47.3742L40.3328 37.9167H18.5009V32.0833H40.3328L30.8753 22.6255L35 18.5007L51.4993 35Z" fill="#D2A942"/>
</g>
<defs>
<clipPath id="clip0_26_95">
<rect width="70" height="70" fill="white"/>
</clipPath>
</defs>
</svg>
