<svg width="85" height="85" viewBox="0 0 85 85" fill="none" xmlns="http://www.w3.org/2000/svg">
<path d="M14.1667 7.08325H70.8333C72.7894 7.08325 74.375 8.66893 74.375 10.6249V74.3749C74.375 76.331 72.7894 77.9166 70.8333 77.9166H14.1667C12.2107 77.9166 10.625 76.331 10.625 74.3749V10.6249C10.625 8.66893 12.2107 7.08325 14.1667 7.08325ZM24.7917 42.4999V49.5833H31.875V42.4999H24.7917ZM24.7917 56.6666V63.7499H31.875V56.6666H24.7917ZM38.9583 42.4999V49.5833H46.0417V42.4999H38.9583ZM38.9583 56.6666V63.7499H46.0417V56.6666H38.9583ZM53.125 42.4999V63.7499H60.2083V42.4999H53.125ZM24.7917 21.2499V35.4166H60.2083V21.2499H24.7917Z" fill="#D2A942"/>
</svg>
