<svg width="85" height="85" viewBox="0 0 85 85" fill="none" xmlns="http://www.w3.org/2000/svg">
<path d="M74.3751 28.3334C78.2872 28.3334 81.4584 31.5047 81.4584 35.4167V49.5834C81.4584 53.4955 78.2872 56.6667 74.3751 56.6667H70.6142C68.8713 70.6432 56.9487 81.4584 42.5001 81.4584V74.3751C54.2361 74.3751 63.7501 64.8611 63.7501 53.1251V31.8751C63.7501 20.139 54.2361 10.6251 42.5001 10.6251C30.764 10.6251 21.2501 20.139 21.2501 31.8751V56.6667H10.6251C6.71306 56.6667 3.54175 53.4955 3.54175 49.5834V35.4167C3.54175 31.5047 6.71306 28.3334 10.6251 28.3334H14.3859C16.1288 14.3569 28.0514 3.54175 42.5001 3.54175C56.9487 3.54175 68.8713 14.3569 70.6142 28.3334H74.3751ZM27.4814 55.9049L31.2361 49.8976C34.5016 51.9429 38.3627 53.1251 42.5001 53.1251C46.6375 53.1251 50.4986 51.9429 53.764 49.8976L57.5189 55.9049C53.1647 58.632 48.0166 60.2084 42.5001 60.2084C36.9836 60.2084 31.8355 58.632 27.4814 55.9049Z" fill="#181861"/>
</svg>
