<svg width="85" height="85" viewBox="0 0 85 85" fill="none" xmlns="http://www.w3.org/2000/svg">
<path d="M70.8333 70.8334C70.8333 72.7894 69.2477 74.375 67.2916 74.375H17.7083C15.7523 74.375 14.1666 72.7894 14.1666 70.8334V38.9584H3.54163L40.1175 5.70743C41.4683 4.47936 43.5316 4.47936 44.8824 5.70743L81.4583 38.9584H70.8333V70.8334ZM42.5 60.2084L54.3957 48.3126C57.5074 45.2006 57.5074 40.1551 54.3957 37.043C51.2836 33.9312 46.2382 33.9312 43.1261 37.043L42.5 37.6692L41.8738 37.043C38.7617 33.9312 33.7163 33.9312 30.6044 37.043C27.4924 40.1551 27.4924 45.2006 30.6044 48.3126L42.5 60.2084Z" fill="#D2A942"/>
</svg>
