<svg width="43" height="43" viewBox="0 0 43 43" fill="none" xmlns="http://www.w3.org/2000/svg">
<path d="M37.536 29.4133V35.6592C37.536 36.5865 36.8191 37.356 35.8942 37.4213C35.1217 37.4759 34.4914 37.5031 34.0034 37.5031C18.3951 37.5031 5.74219 24.8502 5.74219 9.24188C5.74219 8.75386 5.76948 8.12357 5.82406 7.35103C5.88945 6.42615 6.6588 5.70923 7.58598 5.70923H13.8321C14.2855 5.70923 14.6652 6.05264 14.7108 6.50372C14.7516 6.90869 14.7896 7.23381 14.8248 7.47912C15.182 9.97441 15.9119 12.3495 16.9561 14.5462C17.1237 14.8988 17.0144 15.3208 16.6967 15.5478L12.8844 18.271C15.2053 23.6924 19.5529 28.04 24.9743 30.361L27.6925 26.5552C27.9223 26.2338 28.3494 26.1232 28.7062 26.2926C30.9028 27.3359 33.2776 28.0649 35.7725 28.4214C36.0163 28.4563 36.3394 28.4939 36.7416 28.5346C37.1927 28.5801 37.536 28.9599 37.536 29.4133Z" fill="#181861"/>
</svg>
